<svg width="40" height="48" viewBox="0 0 40 48" xmlns="http://www.w3.org/2000/svg">
  <defs>
    <linearGradient id="purple" x1="0" y1="0" x2="40" y2="48" gradientUnits="userSpaceOnUse">
      <stop offset="0%" stop-color="#c4b5fd"></stop>
      <stop offset="40%" stop-color="#8b5cf6"></stop>
      <stop offset="100%" stop-color="#5b21b6"></stop>
    </linearGradient>
  </defs>

  <g fill="url(#purple)" fill-rule="evenodd" clip-rule="evenodd">

    <!-- top dot -->
    <path d="M14.87 4c1.28 0 2.32 1.03 2.32 2.31v.23c0 1.28-1.04 2.31-2.32 2.31s-2.32-1.03-2.32-2.31v-.23C12.55 5.03 13.59 4 14.87 4z" opacity="0.9"></path>

    <!-- upper structure -->
    <path d="M27.82 5.18c.91.90.91 2.36 0 3.26L10.56 25.62c-.91.90-2.38.90-3.29 0-.91-.90-.91-2.36 0-3.26L24.53 5.18c.91-.90 2.38-.90 3.29 0z"></path>

    <path d="M34.90 9.71c.91.90.91 2.36 0 3.27L21.47 26.33c-.91.90-2.38.90-3.29 0-.91-.90-.91-2.36 0-3.26L31.61 9.71c.91-.90 2.38-.90 3.29 0z" opacity="0.95"></path>

    <!-- main diagonal -->
    <path d="M39.32 16.85c.91.90.91 2.36 0 3.26L15.98 43.32c-.91.90-2.38.90-3.29 0-.91-.90-.91-2.36 0-3.26l23.34-23.21c.91-.90 2.38-.90 3.29 0z"></path>

    <!-- right accents -->
    <path d="M39.27 28.46c.91.90.91 2.36 0 3.26l-3.16 3.14c-.91.90-2.38.90-3.29 0-.90-.90-.90-2.36 0-3.26l3.16-3.14c.91-.90 2.38-.90 3.29 0z" opacity="0.9"></path>

    <!-- left-mid -->
    <path d="M15.21 29.30c.91.90.90 2.37-.01 3.27l-6.43 6.37c-.91.90-2.38.90-3.29 0-.91-.90-.90-2.36.01-3.26l6.43-6.37c.91-.90 2.38-.90 3.29 0z" opacity="0.85"></path>

    <!-- small nodes -->
    <path d="M4.29 28.60c.91.90.91 2.36 0 3.26l-.05.05c-.91.90-2.38.90-3.28 0-.91-.90-.91-2.36 0-3.26l.05-.05c.91-.90 2.38-.90 3.28 0z" opacity="0.7"></path>

    <path d="M23.94 40.27c.71-1.06 2.15-1.35 3.22-.64l.14.09c1.07.71 1.36 2.14.64 3.20-.71 1.06-2.15 1.35-3.22.64l-.14-.09c-1.07-.71-1.36-2.14-.64-3.20z" opacity="0.75"></path>

    <path d="M10.73 10.68c.91.90.90 2.37-.01 3.27L3.96 20.65c-.91.90-2.38.90-3.29 0-.91-.90-.90-2.36.01-3.26l6.76-6.70c.91-.90 2.38-.90 3.29 0z" opacity="0.8"></path>

  </g>
</svg>